<svg viewBox="0 0 750.45 561.75" xmlns="http://www.w3.org/2000/svg"><rect fill="#fff" height="164.95" rx="25.33" width="511.52" x="4.48" y="43.01"/><path d="m516 146.25v51.83c0 5.46-11 9.88-24.49 9.88h-462.51c-13.53 0-24.49-4.42-24.49-9.88v-30c31.18 8.26 66.68 13.83 103.09 17.29 44 4.18 89.35 5.4 134.51 5.58 54 .22 108.9-1.09 159.73-8.42 46.58-6.7 89.77-19.05 114.16-36.28z" fill="#e8f0f9"/><path d="m490.19 212.15h-460.86a29.36 29.36 0 0 1 -29.33-29.32v-114.3a29.36 29.36 0 0 1 29.33-29.32h460.86a29.36 29.36 0 0 1 29.33 29.33v114.3a29.36 29.36 0 0 1 -29.33 29.31zm-460.86-164.94a21.35 21.35 0 0 0 -21.33 21.32v114.3a21.35 21.35 0 0 0 21.33 21.33h460.86a21.35 21.35 0 0 0 21.33-21.33v-114.3a21.35 21.35 0 0 0 -21.33-21.33z" fill="#314e5d"/><rect fill="#fff" height="164.95" rx="25.33" width="577.45" x="169.55" y="299.01"/><path d="m747 402.25v51.83c0 5.46-12.38 9.88-27.65 9.88h-522.15c-15.27 0-27.65-4.42-27.65-9.88v-30c35.2 8.26 75.28 13.83 116.38 17.29 49.62 4.18 100.86 5.4 151.85 5.58 60.94.22 122.94-1.09 180.32-8.42 52.61-6.7 101.37-19.05 128.9-36.28z" fill="#e8f0f9"/><path d="m378.32 299.42c-54.4 3.26-130 .11-176.91 12.1-22.27 5.68-27.76 16.7-31.35 25.81l.07-25.51c0-3.27.31-6.83 6.22-9.33 7.31-3.08 20.14-3.32 31.44-3.31 55.48.02 116.15-2.18 170.53.24z" fill="#4ed9ff"/><path d="m721.13 468.15h-526.8a29.36 29.36 0 0 1 -29.33-29.32v-114.3a29.36 29.36 0 0 1 29.33-29.33h526.8a29.36 29.36 0 0 1 29.33 29.33v114.3a29.36 29.36 0 0 1 -29.33 29.32zm-526.8-164.94a21.35 21.35 0 0 0 -21.33 21.32v114.3a21.35 21.35 0 0 0 21.33 21.33h526.8a21.35 21.35 0 0 0 21.33-21.33v-114.3a21.35 21.35 0 0 0 -21.33-21.33z" fill="#314e5d"/><rect fill="#1dcdff" height="520.85" rx="25.33" width="577.38" x="96.4" y="3.38"/><path d="m673.78 329.38v163.62c0 17.23-12.38 31.19-27.65 31.19h-522.13c-15.27 0-27.65-14-27.65-31.19v-94.62c35.2 26.08 75.27 43.68 116.36 54.61 49.62 13.21 100.85 17.07 151.83 17.63 60.94.69 122.92-3.45 180.3-26.6 52.66-21.22 101.42-60.24 128.94-114.64z" fill="#1ab5e1"/><path d="m305.15 4.69c-54.39 10.31-129.94.36-176.89 38.2-22.26 17.94-27.75 52.73-31.34 81.5l.08-80.53c0-10.31.31-21.58 6.22-29.45 7.31-9.72 20.14-10.47 31.43-10.47 55.46.06 116.12-6.76 170.5.75z" fill="#4ed9ff"/><path d="m647.91 528.85h-526.73a29.36 29.36 0 0 1 -29.33-29.33v-470.19a29.36 29.36 0 0 1 29.33-29.33h526.73a29.36 29.36 0 0 1 29.33 29.33v470.2a29.36 29.36 0 0 1 -29.33 29.32zm-526.73-520.85a21.35 21.35 0 0 0 -21.33 21.33v470.2a21.35 21.35 0 0 0 21.33 21.33h526.73a21.35 21.35 0 0 0 21.33-21.33v-470.2a21.35 21.35 0 0 0 -21.33-21.33z" fill="#314e5d"/><rect fill="#fff" height="448.47" rx="15.86" width="475.14" x="148.69" y="36.96"/><path d="m623.07 49.68v87.08h-475.17v-87.08c0-6.68 6.8-12.1 15.19-12.1h444.79c8.39 0 15.19 5.42 15.19 12.1z" fill="#dceaef"/><path d="m607.4 491.92h-443.4a19.88 19.88 0 0 1 -19.86-19.86v-420a19.88 19.88 0 0 1 19.86-19.85h443.4a19.88 19.88 0 0 1 19.86 19.86v420a19.88 19.88 0 0 1 -19.86 19.85zm-443.4-451.71a11.88 11.88 0 0 0 -11.86 11.86v420a11.88 11.88 0 0 0 11.86 11.85h443.4a11.88 11.88 0 0 0 11.86-11.86v-420a11.88 11.88 0 0 0 -11.86-11.85z" fill="#314e5d"/><path d="m201.51 95.59h202.09v17.46h-202.09z" fill="#fff"/><g fill="#ced5d8"><path d="m195.22 175.57h98.87v4.15h-98.87z" transform="matrix(-1 0 0 -1 489.3 355.3)"/><path d="m195.22 184.71h215.19v4.15h-215.19z" transform="matrix(-1 0 0 -1 605.62 373.58)"/><path d="m195.22 193.85h98.87v4.15h-98.87z" transform="matrix(-1 0 0 -1 489.3 391.86)"/><path d="m195.22 202.99h215.19v4.15h-215.19z" transform="matrix(-1 0 0 -1 605.62 410.14)"/><path d="m195.22 212.13h98.87v4.15h-98.87z" transform="matrix(-1 0 0 -1 489.3 428.42)"/><path d="m195.22 221.27h215.19v4.15h-215.19z" transform="matrix(-1 0 0 -1 605.62 446.69)"/><path d="m195.22 258.16h98.87v4.15h-98.87z" transform="matrix(-1 0 0 -1 489.3 520.48)"/><path d="m195.22 267.3h215.19v4.15h-215.19z" transform="matrix(-1 0 0 -1 605.62 538.76)"/><path d="m195.22 276.44h98.87v4.15h-98.87z" transform="matrix(-1 0 0 -1 489.3 557.04)"/><path d="m195.22 285.58h215.19v4.15h-215.19z" transform="matrix(-1 0 0 -1 605.62 575.32)"/><path d="m195.22 294.72h98.87v4.15h-98.87z" transform="matrix(-1 0 0 -1 489.3 593.6)"/><path d="m195.22 303.86h215.19v4.15h-215.19z" transform="matrix(-1 0 0 -1 605.62 611.87)"/><path d="m195.22 340.75h98.87v4.15h-98.87z" transform="matrix(-1 0 0 -1 489.3 685.66)"/><path d="m195.22 349.89h215.19v4.15h-215.19z" transform="matrix(-1 0 0 -1 605.62 703.94)"/><path d="m195.22 359.03h98.87v4.15h-98.87z" transform="matrix(-1 0 0 -1 489.3 722.22)"/><path d="m195.22 368.17h215.19v4.15h-215.19z" transform="matrix(-1 0 0 -1 605.62 740.5)"/><path d="m195.22 377.31h98.87v4.15h-98.87z" transform="matrix(-1 0 0 -1 489.3 758.78)"/><path d="m195.22 386.45h215.19v4.15h-215.19z" transform="matrix(-1 0 0 -1 605.62 777.05)"/></g><path d="m528.96 56.19h74.22v8.73h-74.22z" fill="#eea248" transform="matrix(-1 0 0 -1 1132.14 121.11)"/><path d="m444.5 56.19h74.22v8.73h-74.22z" fill="#eea248" transform="matrix(-1 0 0 -1 963.22 121.11)"/><circle cx="171.51" cy="60.55" fill="#eea248" r="8.42"/><path d="m464.5 378.11h37v79.17h-37z" fill="#314e5d" transform="matrix(.72561461 -.68810133 .68810133 .72561461 -154.89 446.96)"/><g opacity=".5"><circle cx="385.82" cy="313.8" fill="#8bddeb" r="87.31" transform="matrix(.72561461 -.68810133 .68810133 .72561461 -110.07 351.58)"/><path d="m339.8 364.25a87.26 87.26 0 0 1 16-133.39 87.31 87.31 0 1 0 77.46 155.29 87.32 87.32 0 0 1 -93.46-21.9z" fill="#62d6f8"/></g><path d="m481.1 220.58a134.19 134.19 0 0 0 -32.65-25.27c-.21-.13-.42-.24-.65-.35a134.46 134.46 0 0 0 -162.8 209.62c.31.35.63.69 1 1a134 134 0 0 0 34.25 26.13l.36.19a134.46 134.46 0 0 0 160.49-211.32zm-32.89 33.14a87.31 87.31 0 1 1 -123.43-3.27 87.3 87.3 0 0 1 123.43 3.28z" fill="#e7e7e7"/><path d="m490.53 391.42a134.46 134.46 0 0 1 -213.59-156.07 134.47 134.47 0 1 0 229.42 138.17 135.26 135.26 0 0 1 -15.83 17.9z" fill="#ced0d0"/><path d="m384.66 452.27a137.49 137.49 0 0 1 -65.89-16.78l-.5-.27a138.94 138.94 0 0 1 -63.44-73.81c-.26-.68-.51-1.39-.74-2.12a138.48 138.48 0 0 1 195.52-167.89c.27.13.54.28.8.43a138.47 138.47 0 0 1 -48.53 259.38 141 141 0 0 1 -17.22 1.06zm.23-269a130.54 130.54 0 0 0 -123.24 173.45v.12c.19.6.41 1.2.63 1.79a130.92 130.92 0 0 0 59.83 69.61l.35.19a130.45 130.45 0 0 0 157.05-204.43 129.86 129.86 0 0 0 -32.95-25.2l-.15-.09-.32-.17-.15-.08a130.15 130.15 0 0 0 -61.05-15.16zm0 221.81c-.83 0-1.65 0-2.48 0a91.2 91.2 0 1 1 2.48 0zm-.11-174.62a82.74 82.74 0 0 0 -57.27 22.86 83.3 83.3 0 1 0 59.54-22.83q-1.11 0-2.24 0z" fill="#314e5d"/><rect fill="#426372" height="174.39" rx="28.44" transform="matrix(.72561461 -.68810133 .68810133 .72561461 -183.82 512.43)" width="56.89" x="522.2" y="399.51"/><path d="m589.89 561.75h-.89a32.21 32.21 0 0 1 -22.68-10.07l-80.85-85.28a32.44 32.44 0 1 1 47.08-44.65l80.86 85.25a32.52 32.52 0 0 1 -1.22 45.86 32.19 32.19 0 0 1 -22.3 8.89zm-80.89-142.1a24.46 24.46 0 0 0 -17.73 41.25l80.85 85.26a24.53 24.53 0 0 0 34.56.92 24.53 24.53 0 0 0 .92-34.56l-80.85-85.26a24.38 24.38 0 0 0 -17.75-7.61z" fill="#314e5d"/><g fill="#fff" opacity=".5"><path d="m517.9 434.08c10 8.4 17.73 18.85 27.07 27.89 2.78 2.69 7-1.55 4.24-4.24-9.34-9-17.07-19.49-27.07-27.89-2.94-2.47-7.2 1.75-4.24 4.24z"/><path d="m500.64 432.19a12.83 12.83 0 0 1 10.83-1.26c3.71 1.08 5.3-4.71 1.6-5.79a18.87 18.87 0 0 0 -15.46 1.86c-3.31 2-.3 7.17 3 5.18z"/></g><path d="m418.05 204.15c15.95 4.85 30.95 12.61 43.41 23.68 15.82 14 26.58 32.38 33.16 52.34 1.2 3.65 7 2.09 5.79-1.6-6.89-20.9-18.13-40.29-34.7-55-13.28-11.78-29.14-20-46.05-25.22-3.7-1.13-5.28 4.66-1.6 5.79z" fill="#fff"/><path d="m359.78 198.58c10.43-1.38 21.24-.87 31.66.19 3.84.39 3.81-5.61 0-6-10.42-1.06-21.23-1.57-31.66-.19-3.77.5-3.82 6.51 0 6z" fill="#fff"/></svg>